<svg id="Layer_1" data-name="Layer 1" xmlns="http://www.w3.org/2000/svg" xmlns:xlink="http://www.w3.org/1999/xlink" viewBox="0 0 710.74 341.11"><defs><style>.cls-1{fill:none;}.cls-2{opacity:0.18;}.cls-3{clip-path:url(#clip-path);}.cls-4{opacity:0.4;}.cls-5{fill:#9e804a;}</style><clipPath id="clip-path"><rect class="cls-1" x="-1.55" width="712.28" height="341.11"/></clipPath></defs><g class="cls-2"><g class="cls-3"><g class="cls-4"><polygon class="cls-5" points="-31.86 108.22 -31.86 95.31 -19.82 82.69 -7.68 95.63 -7.68 111.77 -6.79 112.45 -6.79 95.6 -6.79 94.86 -19.82 79.2 -32.76 94.73 -32.74 96.24 -32.74 115.66 -32.73 115.66 -32.73 116.16 5.09 144.4 5.09 158.05 5.98 157.13 5.98 145.06 5.98 138.23 5.98 136.67 -31.86 108.22"/><polygon class="cls-5" points="12.81 99.64 5.98 107.87 5.98 125.77 5.98 126.03 5.98 126.67 12.77 131.63 12.81 131.67 12.81 131.66 44.77 155.02 44.77 179.41 31.88 198.34 18.99 179.41 18.99 152.24 12.15 147.18 12.15 179.41 31.88 199.9 51.6 179.41 51.6 160.01 51.6 159.33 51.6 159.31 12.81 130.79 12.81 99.64"/><polygon class="cls-5" points="19.75 108.22 19.75 95.31 31.78 82.69 43.93 95.63 43.93 111.77 44.81 112.45 44.81 95.6 44.81 94.86 31.78 79.2 18.84 94.73 18.86 96.24 18.86 115.66 18.88 115.66 18.88 116.16 56.69 144.4 56.69 158.05 57.58 157.13 57.58 145.06 57.58 138.23 57.58 136.67 19.75 108.22"/><polygon class="cls-5" points="64.42 99.64 57.58 107.87 57.58 125.77 57.58 126.03 57.58 126.67 64.38 131.63 64.42 131.67 64.42 131.66 96.37 155.02 96.37 179.41 83.48 198.34 70.59 179.41 70.59 152.24 63.76 147.18 63.76 179.41 83.48 199.9 103.21 179.41 103.21 160.01 103.21 159.33 103.21 159.31 64.42 130.79 64.42 99.64"/><polygon class="cls-5" points="71.35 108.22 71.35 95.31 83.38 82.69 95.53 95.63 95.53 111.77 96.42 112.45 96.42 95.6 96.42 94.86 83.38 79.2 70.44 94.73 70.47 96.24 70.47 115.66 70.48 115.66 70.48 116.16 108.3 144.4 108.3 158.05 109.18 157.13 109.18 145.06 109.18 138.23 109.18 136.67 71.35 108.22"/><polygon class="cls-5" points="116.02 99.64 109.18 107.87 109.18 125.77 109.18 126.03 109.18 126.67 115.98 131.63 116.02 131.67 116.02 131.66 147.98 155.02 147.98 179.41 135.09 198.34 122.2 179.41 122.2 152.24 115.36 147.18 115.36 179.41 135.09 199.9 154.81 179.41 154.81 160.01 154.81 159.33 154.81 159.31 116.02 130.79 116.02 99.64"/><polygon class="cls-5" points="122.95 108.22 122.95 95.31 134.99 82.69 147.13 95.63 147.13 111.77 148.02 112.45 148.02 95.6 148.02 94.86 134.99 79.2 122.05 94.73 122.07 96.24 122.07 115.66 122.08 115.66 122.08 116.16 159.9 144.4 159.9 158.05 160.79 157.13 160.79 145.06 160.79 138.23 160.79 136.67 122.95 108.22"/><polygon class="cls-5" points="167.62 99.64 160.79 107.87 160.79 125.77 160.79 126.03 160.79 126.67 167.59 131.63 167.62 131.67 167.62 131.66 199.58 155.02 199.58 179.41 186.69 198.34 173.8 179.41 173.8 152.24 166.96 147.18 166.96 179.41 186.69 199.9 206.41 179.41 206.41 160.01 206.41 159.33 206.41 159.31 167.62 130.79 167.62 99.64"/><polygon class="cls-5" points="174.56 108.22 174.56 95.31 186.59 82.69 198.74 95.63 198.74 111.77 199.62 112.45 199.62 95.6 199.62 94.86 186.59 79.2 173.65 94.73 173.67 96.24 173.67 115.66 173.69 115.66 173.69 116.16 211.5 144.4 211.5 158.05 212.39 157.13 212.39 145.06 212.39 138.23 212.39 136.67 174.56 108.22"/><polygon class="cls-5" points="219.23 99.64 212.39 107.87 212.39 125.77 212.39 126.03 212.39 126.67 219.19 131.63 219.23 131.67 219.23 131.66 251.18 155.02 251.18 179.41 238.29 198.34 225.4 179.41 225.4 152.24 218.57 147.18 218.57 179.41 238.29 199.9 258.02 179.41 258.02 160.01 258.02 159.33 258.02 159.31 219.23 130.79 219.23 99.64"/><polygon class="cls-5" points="226.16 108.22 226.16 95.31 238.19 82.69 250.34 95.63 250.34 111.77 251.22 112.45 251.22 95.6 251.22 94.86 238.19 79.2 225.26 94.73 225.28 96.24 225.28 115.66 225.29 115.66 225.29 116.16 263.11 144.4 263.11 158.05 263.99 157.13 263.99 145.06 263.99 138.23 263.99 136.67 226.16 108.22"/><polygon class="cls-5" points="270.83 99.64 263.99 107.87 263.99 125.77 263.99 126.03 263.99 126.67 270.79 131.63 270.83 131.67 270.83 131.66 302.79 155.02 302.79 179.41 289.9 198.34 277 179.41 277 152.24 270.17 147.18 270.17 179.41 289.9 199.9 309.62 179.41 309.62 160.01 309.62 159.33 309.62 159.31 270.83 130.79 270.83 99.64"/><polygon class="cls-5" points="277.77 108.22 277.77 95.31 289.8 82.69 301.94 95.63 301.94 111.77 302.83 112.45 302.83 95.6 302.83 94.86 289.8 79.2 276.86 94.73 276.88 96.24 276.88 115.66 276.89 115.66 276.89 116.16 314.71 144.4 314.71 158.05 315.6 157.13 315.6 145.06 315.6 138.23 315.6 136.67 277.77 108.22"/><polygon class="cls-5" points="322.43 99.64 315.6 107.87 315.6 125.77 315.6 126.03 315.6 126.67 322.39 131.63 322.43 131.67 322.43 131.66 354.39 155.02 354.39 179.41 341.5 198.34 328.61 179.41 328.61 152.24 321.77 147.18 321.77 179.41 341.5 199.9 361.22 179.41 361.22 160.01 361.22 159.33 361.22 159.31 322.43 130.79 322.43 99.64"/><polygon class="cls-5" points="329.37 108.22 329.37 95.31 341.4 82.69 353.55 95.63 353.55 111.77 354.43 112.45 354.43 95.6 354.43 94.86 341.4 79.2 328.46 94.73 328.48 96.24 328.48 115.66 328.5 115.66 328.5 116.16 366.31 144.4 366.31 158.05 367.2 157.13 367.2 145.06 367.2 138.23 367.2 136.67 329.37 108.22"/><polygon class="cls-5" points="374.04 99.64 367.2 107.87 367.2 125.77 367.2 126.03 367.2 126.67 374 131.63 374.04 131.67 374.04 131.66 405.99 155.02 405.99 179.41 393.1 198.34 380.21 179.41 380.21 152.24 373.38 147.18 373.38 179.41 393.1 199.9 412.83 179.41 412.83 160.01 412.83 159.33 412.83 159.31 374.04 130.79 374.04 99.64"/><polygon class="cls-5" points="380.97 108.22 380.97 95.31 393 82.69 405.15 95.63 405.15 111.77 406.04 112.45 406.04 95.6 406.04 94.86 393 79.2 380.07 94.73 380.09 96.24 380.09 115.66 380.1 115.66 380.1 116.16 417.92 144.4 417.92 158.05 418.8 157.13 418.8 145.06 418.8 138.23 418.8 136.67 380.97 108.22"/><polygon class="cls-5" points="425.64 99.64 418.8 107.87 418.8 125.77 418.8 126.03 418.8 126.67 425.6 131.63 425.64 131.67 425.64 131.66 457.6 155.02 457.6 179.41 444.71 198.34 431.81 179.41 431.81 152.24 424.98 147.18 424.98 179.41 444.71 199.9 464.43 179.41 464.43 160.01 464.43 159.33 464.43 159.31 425.64 130.79 425.64 99.64"/><polygon class="cls-5" points="432.58 108.22 432.58 95.31 444.61 82.69 456.75 95.63 456.75 111.77 457.64 112.45 457.64 95.6 457.64 94.86 444.61 79.2 431.67 94.73 431.69 96.24 431.69 115.66 431.7 115.66 431.7 116.16 469.52 144.4 469.52 158.05 470.41 157.13 470.41 145.06 470.41 138.23 470.41 136.67 432.58 108.22"/><polygon class="cls-5" points="477.24 99.64 470.41 107.87 470.41 125.77 470.41 126.03 470.41 126.67 477.21 131.63 477.24 131.67 477.24 131.66 509.2 155.02 509.2 179.41 496.31 198.34 483.42 179.41 483.42 152.24 476.58 147.18 476.58 179.41 496.31 199.9 516.03 179.41 516.03 160.01 516.03 159.33 516.03 159.31 477.24 130.79 477.24 99.64"/><polygon class="cls-5" points="484.18 108.22 484.18 95.31 496.21 82.69 508.36 95.63 508.36 111.77 509.24 112.45 509.24 95.6 509.24 94.86 496.21 79.2 483.27 94.73 483.29 96.24 483.29 115.66 483.31 115.66 483.31 116.16 521.13 144.4 521.13 158.05 522.01 157.13 522.01 145.06 522.01 138.23 522.01 136.67 484.18 108.22"/><polygon class="cls-5" points="528.85 99.64 522.01 107.87 522.01 125.77 522.01 126.03 522.01 126.67 528.81 131.63 528.85 131.67 528.85 131.66 560.8 155.02 560.8 179.41 547.91 198.34 535.02 179.41 535.02 152.24 528.19 147.18 528.19 179.41 547.91 199.9 567.64 179.41 567.64 160.01 567.64 159.33 567.64 159.31 528.85 130.79 528.85 99.64"/><polygon class="cls-5" points="535.78 108.22 535.78 95.31 547.81 82.69 559.96 95.63 559.96 111.77 560.85 112.45 560.85 95.6 560.85 94.86 547.81 79.2 534.88 94.73 534.9 96.24 534.9 115.66 534.91 115.66 534.91 116.16 572.73 144.4 572.73 158.05 573.61 157.13 573.61 145.06 573.61 138.23 573.61 136.67 535.78 108.22"/><polygon class="cls-5" points="580.45 99.64 573.61 107.87 573.61 125.77 573.61 126.03 573.61 126.67 580.41 131.63 580.45 131.67 580.45 131.66 612.41 155.02 612.41 179.41 599.52 198.34 586.63 179.41 586.63 152.24 579.79 147.18 579.79 179.41 599.52 199.9 619.24 179.41 619.24 160.01 619.24 159.33 619.24 159.31 580.45 130.79 580.45 99.64"/><polygon class="cls-5" points="587.39 108.22 587.39 95.31 599.42 82.69 611.56 95.63 611.56 111.77 612.45 112.45 612.45 95.6 612.45 94.86 599.42 79.2 586.48 94.73 586.5 96.24 586.5 115.66 586.52 115.66 586.52 116.16 624.33 144.4 624.33 158.05 625.22 157.13 625.22 145.06 625.22 138.23 625.22 136.67 587.39 108.22"/><polygon class="cls-5" points="632.05 99.64 625.22 107.87 625.22 125.77 625.22 126.03 625.22 126.67 632.01 131.63 632.05 131.67 632.05 131.66 664.01 155.02 664.01 179.41 651.12 198.34 638.23 179.41 638.23 152.24 631.39 147.18 631.39 179.41 651.12 199.9 670.85 179.41 670.85 160.01 670.85 159.33 670.85 159.31 632.05 130.79 632.05 99.64"/><polygon class="cls-5" points="638.99 108.22 638.99 95.31 651.02 82.69 663.17 95.63 663.17 111.77 664.05 112.45 664.05 95.6 664.05 94.86 651.02 79.2 638.08 94.73 638.1 96.24 638.1 115.66 638.12 115.66 638.12 116.16 675.93 144.4 675.93 158.05 676.82 157.13 676.82 145.06 676.82 138.23 676.82 136.67 638.99 108.22"/><polygon class="cls-5" points="-13.28 209.31 -20.12 217.54 -20.12 235.44 -20.12 235.69 -20.12 236.34 -13.32 241.3 -13.28 241.34 -13.28 241.33 18.68 264.69 18.68 289.08 5.78 308 -7.11 289.08 -7.11 261.91 -13.94 256.84 -13.94 289.08 5.78 309.56 25.51 289.08 25.51 269.68 25.51 269 25.51 268.98 -13.28 240.46 -13.28 209.31"/><polygon class="cls-5" points="-6.34 217.89 -6.34 204.98 5.68 192.36 17.83 205.3 17.83 221.44 18.72 222.12 18.72 205.27 18.72 204.53 5.68 188.87 -7.25 204.4 -7.23 205.91 -7.23 225.32 -7.22 225.32 -7.22 225.83 30.6 254.07 30.6 267.72 31.48 266.8 31.48 254.73 31.48 247.9 31.48 246.34 -6.34 217.89"/><polygon class="cls-5" points="38.32 209.31 31.49 217.54 31.49 235.44 31.49 235.69 31.49 236.34 38.28 241.3 38.32 241.34 38.32 241.33 70.28 264.69 70.28 289.08 57.39 308 44.5 289.08 44.5 261.91 37.66 256.84 37.66 289.08 57.39 309.56 77.11 289.08 77.11 269.68 77.11 269 77.11 268.98 38.32 240.46 38.32 209.31"/><polygon class="cls-5" points="45.26 217.89 45.26 204.98 57.29 192.36 69.44 205.3 69.44 221.44 70.32 222.12 70.32 205.27 70.32 204.53 57.29 188.87 44.35 204.4 44.37 205.91 44.37 225.32 44.39 225.32 44.39 225.83 82.2 254.07 82.2 267.72 83.09 266.8 83.09 254.73 83.09 247.9 83.09 246.34 45.26 217.89"/><polygon class="cls-5" points="89.92 209.31 83.09 217.54 83.09 235.44 83.09 235.69 83.09 236.34 89.89 241.3 89.92 241.34 89.92 241.33 121.88 264.69 121.88 289.08 108.99 308 96.1 289.08 96.1 261.91 89.27 256.84 89.27 289.08 108.99 309.56 128.72 289.08 128.72 269.68 128.72 269 128.72 268.98 89.92 240.46 89.92 209.31"/><polygon class="cls-5" points="96.86 217.89 96.86 204.98 108.89 192.36 121.04 205.3 121.04 221.44 121.92 222.12 121.92 205.27 121.92 204.53 108.89 188.87 95.95 204.4 95.98 205.91 95.98 225.32 95.99 225.32 95.99 225.83 133.81 254.07 133.81 267.72 134.69 266.8 134.69 254.73 134.69 247.9 134.69 246.34 96.86 217.89"/><polygon class="cls-5" points="141.53 209.31 134.69 217.54 134.69 235.44 134.69 235.69 134.69 236.34 141.49 241.3 141.53 241.34 141.53 241.33 173.49 264.69 173.49 289.08 160.6 308 147.71 289.08 147.71 261.91 140.87 256.84 140.87 289.08 160.6 309.56 180.32 289.08 180.32 269.68 180.32 269 180.32 268.98 141.53 240.46 141.53 209.31"/><polygon class="cls-5" points="148.47 217.89 148.47 204.98 160.5 192.36 172.64 205.3 172.64 221.44 173.53 222.12 173.53 205.27 173.53 204.53 160.5 188.87 147.56 204.4 147.58 205.91 147.58 225.32 147.59 225.32 147.59 225.83 185.41 254.07 185.41 267.72 186.3 266.8 186.3 254.73 186.3 247.9 186.3 246.34 148.47 217.89"/><polygon class="cls-5" points="193.13 209.31 186.3 217.54 186.3 235.44 186.3 235.69 186.3 236.34 193.09 241.3 193.13 241.34 193.13 241.33 225.09 264.69 225.09 289.08 212.2 308 199.31 289.08 199.31 261.91 192.47 256.84 192.47 289.08 212.2 309.56 231.92 289.08 231.92 269.68 231.92 269 231.92 268.98 193.13 240.46 193.13 209.31"/><polygon class="cls-5" points="200.07 217.89 200.07 204.98 212.1 192.36 224.25 205.3 224.25 221.44 225.13 222.12 225.13 205.27 225.13 204.53 212.1 188.87 199.16 204.4 199.18 205.91 199.18 225.32 199.2 225.32 199.2 225.83 237.01 254.07 237.01 267.72 237.9 266.8 237.9 254.73 237.9 247.9 237.9 246.34 200.07 217.89"/><polygon class="cls-5" points="244.74 209.31 237.9 217.54 237.9 235.44 237.9 235.69 237.9 236.34 244.7 241.3 244.74 241.34 244.74 241.33 276.69 264.69 276.69 289.08 263.8 308 250.91 289.08 250.91 261.91 244.08 256.84 244.08 289.08 263.8 309.56 283.53 289.08 283.53 269.68 283.53 269 283.53 268.98 244.74 240.46 244.74 209.31"/><polygon class="cls-5" points="251.67 217.89 251.67 204.98 263.7 192.36 275.85 205.3 275.85 221.44 276.74 222.12 276.74 205.27 276.74 204.53 263.7 188.87 250.77 204.4 250.79 205.91 250.79 225.32 250.8 225.32 250.8 225.83 288.62 254.07 288.62 267.72 289.5 266.8 289.5 254.73 289.5 247.9 289.5 246.34 251.67 217.89"/><polygon class="cls-5" points="296.34 209.31 289.5 217.54 289.5 235.44 289.5 235.69 289.5 236.34 296.3 241.3 296.34 241.34 296.34 241.33 328.3 264.69 328.3 289.08 315.4 308 302.51 289.08 302.51 261.91 295.68 256.84 295.68 289.08 315.4 309.56 335.13 289.08 335.13 269.68 335.13 269 335.13 268.98 296.34 240.46 296.34 209.31"/><polygon class="cls-5" points="303.28 217.89 303.28 204.98 315.31 192.36 327.45 205.3 327.45 221.44 328.34 222.12 328.34 205.27 328.34 204.53 315.31 188.87 302.37 204.4 302.39 205.91 302.39 225.32 302.4 225.32 302.4 225.83 340.22 254.07 340.22 267.72 341.11 266.8 341.11 254.73 341.11 247.9 341.11 246.34 303.28 217.89"/><polygon class="cls-5" points="347.94 209.31 341.11 217.54 341.11 235.44 341.11 235.69 341.11 236.34 347.9 241.3 347.94 241.34 347.94 241.33 379.9 264.69 379.9 289.08 367.01 308 354.12 289.08 354.12 261.91 347.28 256.84 347.28 289.08 367.01 309.56 386.73 289.08 386.73 269.68 386.73 269 386.73 268.98 347.94 240.46 347.94 209.31"/><polygon class="cls-5" points="354.88 217.89 354.88 204.98 366.91 192.36 379.06 205.3 379.06 221.44 379.94 222.12 379.94 205.27 379.94 204.53 366.91 188.87 353.97 204.4 353.99 205.91 353.99 225.32 354.01 225.32 354.01 225.83 391.82 254.07 391.82 267.72 392.71 266.8 392.71 254.73 392.71 247.9 392.71 246.34 354.88 217.89"/><polygon class="cls-5" points="399.55 209.31 392.71 217.54 392.71 235.44 392.71 235.69 392.71 236.34 399.51 241.3 399.55 241.34 399.55 241.33 431.5 264.69 431.5 289.08 418.61 308 405.72 289.08 405.72 261.91 398.89 256.84 398.89 289.08 418.61 309.56 438.34 289.08 438.34 269.68 438.34 269 438.34 268.98 399.55 240.46 399.55 209.31"/><polygon class="cls-5" points="406.48 217.89 406.48 204.98 418.51 192.36 430.66 205.3 430.66 221.44 431.55 222.12 431.55 205.27 431.55 204.53 418.51 188.87 405.58 204.4 405.6 205.91 405.6 225.32 405.61 225.32 405.61 225.83 443.43 254.07 443.43 267.72 444.31 266.8 444.31 254.73 444.31 247.9 444.31 246.34 406.48 217.89"/><polygon class="cls-5" points="451.15 209.31 444.31 217.54 444.31 235.44 444.31 235.69 444.31 236.34 451.11 241.3 451.15 241.34 451.15 241.33 483.11 264.69 483.11 289.08 470.22 308 457.33 289.08 457.33 261.91 450.49 256.84 450.49 289.08 470.22 309.56 489.94 289.08 489.94 269.68 489.94 269 489.94 268.98 451.15 240.46 451.15 209.31"/><polygon class="cls-5" points="458.09 217.89 458.09 204.98 470.12 192.36 482.26 205.3 482.26 221.44 483.15 222.12 483.15 205.27 483.15 204.53 470.12 188.87 457.18 204.4 457.2 205.91 457.2 225.32 457.21 225.32 457.21 225.83 495.03 254.07 495.03 267.72 495.92 266.8 495.92 254.73 495.92 247.9 495.92 246.34 458.09 217.89"/><polygon class="cls-5" points="502.75 209.31 495.92 217.54 495.92 235.44 495.92 235.69 495.92 236.34 502.72 241.3 502.75 241.34 502.75 241.33 534.71 264.69 534.71 289.08 521.82 308 508.93 289.08 508.93 261.91 502.1 256.84 502.1 289.08 521.82 309.56 541.54 289.08 541.54 269.68 541.54 269 541.54 268.98 502.75 240.46 502.75 209.31"/><polygon class="cls-5" points="509.69 217.89 509.69 204.98 521.72 192.36 533.87 205.3 533.87 221.44 534.75 222.12 534.75 205.27 534.75 204.53 521.72 188.87 508.78 204.4 508.8 205.91 508.8 225.32 508.82 225.32 508.82 225.83 546.63 254.07 546.63 267.72 547.52 266.8 547.52 254.73 547.52 247.9 547.52 246.34 509.69 217.89"/><polygon class="cls-5" points="554.36 209.31 547.52 217.54 547.52 235.44 547.52 235.69 547.52 236.34 554.32 241.3 554.36 241.34 554.36 241.33 586.31 264.69 586.31 289.08 573.42 308 560.53 289.08 560.53 261.91 553.7 256.84 553.7 289.08 573.42 309.56 593.15 289.08 593.15 269.68 593.15 269 593.15 268.98 554.36 240.46 554.36 209.31"/><polygon class="cls-5" points="561.29 217.89 561.29 204.98 573.32 192.36 585.47 205.3 585.47 221.44 586.36 222.12 586.36 205.27 586.36 204.53 573.32 188.87 560.39 204.4 560.41 205.91 560.41 225.32 560.42 225.32 560.42 225.83 598.24 254.07 598.24 267.72 599.13 266.8 599.13 254.73 599.13 247.9 599.13 246.34 561.29 217.89"/><polygon class="cls-5" points="605.96 209.31 599.12 217.54 599.12 235.44 599.12 235.69 599.12 236.34 605.92 241.3 605.96 241.34 605.96 241.33 637.92 264.69 637.92 289.08 625.03 308 612.14 289.08 612.14 261.91 605.3 256.84 605.3 289.08 625.03 309.56 644.75 289.08 644.75 269.68 644.75 269 644.75 268.98 605.96 240.46 605.96 209.31"/><polygon class="cls-5" points="612.9 217.89 612.9 204.98 624.93 192.36 637.07 205.3 637.07 221.44 637.96 222.12 637.96 205.27 637.96 204.53 624.93 188.87 611.99 204.4 612.01 205.91 612.01 225.32 612.03 225.32 612.03 225.83 649.84 254.07 649.84 267.72 650.73 266.8 650.73 254.73 650.73 247.9 650.73 246.34 612.9 217.89"/><polygon class="cls-5" points="657.56 209.31 650.73 217.54 650.73 235.44 650.73 235.69 650.73 236.34 657.53 241.3 657.56 241.34 657.56 241.33 689.52 264.69 689.52 289.08 676.63 308 663.74 289.08 663.74 261.91 656.9 256.84 656.9 289.08 676.63 309.56 696.36 289.08 696.36 269.68 696.36 269 696.36 268.98 657.56 240.46 657.56 209.31"/><polygon class="cls-5" points="664.5 217.89 664.5 204.98 676.53 192.36 688.68 205.3 688.68 221.44 689.56 222.12 689.56 205.27 689.56 204.53 676.53 188.87 663.59 204.4 663.62 205.91 663.62 225.32 663.63 225.32 663.63 225.83 701.45 254.07 701.45 267.72 702.33 266.8 702.33 254.73 702.33 247.9 702.33 246.34 664.5 217.89"/></g></g></g></svg>